<svg xmlns="http://www.w3.org/2000/svg" xmlns:xlink="http://www.w3.org/1999/xlink" width="500" zoomAndPan="magnify" viewBox="0 0 375 374.999991" height="500" preserveAspectRatio="xMidYMid meet" version="1.0"><defs><g/><clipPath id="3c6c21ee9c"><rect x="0" width="319" y="0" height="336"/></clipPath></defs><rect x="-37.5" width="450" fill="#ffffff" y="-37.499999" height="449.999989" fill-opacity="1"/><rect x="-37.5" width="450" fill="#000000" y="-37.499999" height="449.999989" fill-opacity="1"/><g transform="matrix(1, 0, 0, 1, 24, 0)"><g clip-path="url(#3c6c21ee9c)"><g fill="#ffffff" fill-opacity="1"><g transform="translate(2.922207, 302.027674)"><g><path d="M 21 -207.859375 C 18.707031 -207.859375 17.5625 -208.800781 17.5625 -210.6875 L 17.5625 -247.984375 C 17.5625 -249.867188 18.707031 -250.8125 21 -250.8125 L 106.28125 -250.8125 C 108.375 -250.8125 109.421875 -249.867188 109.421875 -247.984375 L 109.421875 -207.859375 Z M 61.765625 -164.90625 L 109.421875 -164.90625 L 109.421875 -73.984375 C 109.421875 -61.660156 107.585938 -51.265625 103.921875 -42.796875 C 100.265625 -34.328125 95.613281 -27.375 89.96875 -21.9375 C 84.332031 -16.507812 78.328125 -12.28125 71.953125 -9.25 C 65.578125 -6.21875 59.566406 -4.070312 53.921875 -2.8125 C 48.273438 -1.5625 43.625 -0.78125 39.96875 -0.46875 C 36.3125 -0.15625 34.484375 0 34.484375 0 L 3.453125 0 C 1.148438 0 0 -0.941406 0 -2.828125 L 0 -43.578125 C 0 -45.460938 1.148438 -46.40625 3.453125 -46.40625 L 34.484375 -46.40625 C 41.378906 -46.40625 46.65625 -47.8125 50.3125 -50.625 C 53.976562 -53.445312 56.644531 -56.632812 58.3125 -60.1875 C 59.988281 -63.75 60.984375 -66.9375 61.296875 -69.75 C 61.609375 -72.570312 61.765625 -73.984375 61.765625 -73.984375 Z M 61.765625 -164.90625 "/></g></g></g><g fill="#ffffff" fill-opacity="1"><g transform="translate(81.295577, 302.027674)"><g/></g></g><g fill="#ffffff" fill-opacity="1"><g transform="translate(122.988824, 302.027674)"><g><path d="M 191.25 -204.71875 L 143.28125 -204.71875 C 137.21875 -204.9375 130.109375 -204.78125 121.953125 -204.25 C 113.804688 -203.726562 105.445312 -202.160156 96.875 -199.546875 C 88.300781 -196.941406 80.304688 -192.816406 72.890625 -187.171875 C 65.472656 -181.523438 59.515625 -173.6875 55.015625 -163.65625 C 50.523438 -153.625 48.28125 -140.875 48.28125 -125.40625 C 48.28125 -105.550781 52.40625 -89.613281 60.65625 -77.59375 C 68.914062 -65.570312 80.203125 -57.050781 94.515625 -52.03125 C 108.835938 -47.019531 125.09375 -44.929688 143.28125 -45.765625 L 143.28125 -108.46875 L 95 -108.46875 L 95 -156.4375 L 191.25 -156.4375 L 191.25 -2.828125 C 191.25 -0.941406 190.097656 0 187.796875 0 L 147.03125 0 C 134.707031 0 121.800781 -0.832031 108.3125 -2.5 C 94.832031 -4.175781 81.664062 -7.414062 68.8125 -12.21875 C 55.957031 -17.03125 44.359375 -24.035156 34.015625 -33.234375 C 23.671875 -42.429688 15.414062 -54.550781 9.25 -69.59375 C 3.082031 -84.644531 0 -103.25 0 -125.40625 C 0 -146.9375 3.03125 -165.066406 9.09375 -179.796875 C 15.15625 -194.535156 23.359375 -206.554688 33.703125 -215.859375 C 44.046875 -225.160156 55.59375 -232.367188 68.34375 -237.484375 C 81.09375 -242.609375 94.257812 -246.109375 107.84375 -247.984375 C 121.4375 -249.867188 134.5 -250.8125 147.03125 -250.8125 L 187.796875 -250.8125 C 190.097656 -250.8125 191.25 -249.867188 191.25 -247.984375 Z M 191.25 -204.71875 "/></g></g></g></g></g></svg>